<?xml version="1.0" standalone="no"?>
<!DOCTYPE svg PUBLIC "-//W3C//DTD SVG 20010904//EN"
 "http://www.w3.org/TR/2001/REC-SVG-20010904/DTD/svg10.dtd">
<svg version="1.0" xmlns="http://www.w3.org/2000/svg"
 width="719.000000pt" height="718.000000pt" viewBox="0 0 719.000000 718.000000"
 preserveAspectRatio="xMidYMid meet">

<g transform="translate(0.000000,718.000000) scale(0.100000,-0.100000)"
fill="#000000" stroke="none">
<path d="M2772 5219 c-234 -31 -431 -200 -488 -417 -17 -62 -18 -155 -21
-1157 -4 -1140 -2 -1202 39 -1313 68 -183 239 -328 430 -363 58 -11 244 -14
883 -14 742 0 816 1 879 18 185 47 346 190 405 358 39 109 42 193 39 1009 l-3
785 -23 65 c-48 131 -78 168 -456 546 -217 217 -385 376 -420 399 -32 21 -91
50 -130 64 l-71 26 -500 1 c-275 1 -529 -2 -563 -7z m980 -621 c3 -314 4 -336
24 -379 30 -63 79 -116 138 -147 l51 -27 338 -3 338 -3 -3 -792 -3 -792 -29
-53 c-32 -57 -81 -102 -143 -130 -35 -16 -101 -17 -863 -17 -820 0 -825 0
-871 21 -55 26 -111 79 -141 137 l-23 42 0 1135 c0 1089 1 1136 19 1170 47 88
116 145 195 161 20 4 246 7 503 8 l467 1 3 -332z m493 -68 l190 -190 -193 0
-192 0 0 190 c0 105 1 190 3 190 1 0 88 -85 192 -190z"/>
</g>
</svg>
